# xmcd CD database file
#
# Track frame offsets:
#	150
#	26959
#	49022
#	68299
#	87533
#	114503
#	138897
#	166937
#	195658
#
# Disc length: 3059 seconds
#
# Revision: 0
# Processed by: cddbd v1.5.2PL0 Copyright (c) Steve Scherf et al.
# Submitted via: CDex 1.70beta2
#
DISCID=720bf109
DTITLE=Jovino Santos Neto and Weber Iago with Special Guest: Joe Lovano - Live At Caramoor
DYEAR=2008
DGENRE=Jazz
TTITLE0=Navegante
TTITLE1=Alone Together
TTITLE2=Balaio
TTITLE3=Lamentos
TTITLE4=Choro pra Nos
TTITLE5=Ser Feliz
TTITLE6=O Fim do Comeco
TTITLE7=Desafinado
TTITLE8=Wave
EXTD=YEAR: 2008
EXTT0=
EXTT1=
EXTT2=
EXTT3=
EXTT4=
EXTT5=
EXTT6=
EXTT7=
EXTT8=
PLAYORDER=
